<svg width="556" height="804" viewBox="0 0 556 804" fill="none" xmlns="http://www.w3.org/2000/svg">
<g clip-path="url(#clip0_1419_258)">
<rect x="115" y="412" width="328" height="320" fill="white"/>
<rect x="152" y="535" width="255" height="237" fill="white"/>
<rect x="309" y="383" width="127" height="284" fill="white"/>
<path d="M88.0683 672.538C88.0486 671.624 88.0547 671.177 88.0504 670.051C87.8704 668.248 87.7009 667.123 87.5313 665.999C87.6062 644.123 87.6683 622.247 87.7671 600.37C87.7859 596.228 87.95 592.087 88.0448 587.129C88.0251 585.563 88.0076 584.812 87.9901 584.062C87.9965 583.313 88.0028 582.564 88.0262 580.977C88.0426 575.781 88.0417 571.422 88.0409 567.064C85.2848 566.758 82.5204 566.137 79.7744 566.209C73.2725 566.381 73.2487 566.49 72.7909 559.946C72.7448 559.287 72.6906 558.628 72.6617 557.064C72.7444 554.995 72.8591 553.831 72.8591 552.667C72.862 500.364 72.8549 448.062 72.8467 395.759C72.8466 395.093 72.8213 394.427 72.7987 393.761C72.6953 390.727 71.5592 389.259 68.1128 389.687C64.4995 390.135 60.8017 389.902 57.1408 389.966C56.7725 388.023 56.0898 386.081 56.084 384.136C56.0196 362.482 56.0482 340.828 56.097 319.174C56.1004 317.696 56.4666 316.219 57.3089 314.384C68.2546 314.002 78.5555 313.978 89.2781 313.981C90.8161 313.977 91.9325 313.946 93.4732 313.94C95.8574 313.952 97.8172 313.938 100.175 313.98C106.959 315.189 104.151 320.402 104.961 324.301C104.949 324.785 104.95 324.979 104.92 325.584C104.905 327.647 104.922 329.297 104.918 331.429C104.92 342.316 104.943 352.722 104.956 363.446C104.959 364.185 104.972 364.608 104.964 365.502C104.973 375.657 105.002 385.341 105.01 395.481C104.872 406.193 104.94 406.261 115.13 406.032C115.461 406.025 115.791 406.002 116.316 405.993C116.51 406 116.897 405.998 117.339 406.023C119.547 406.035 121.315 406.021 123.445 406.018C124.536 406.009 125.264 405.991 126.451 406C130.289 406.01 133.668 405.992 137.511 405.999C173.967 406.02 209.959 406.017 246.377 406.031C248.223 406.033 249.643 406.017 251.251 405.875C251.674 405.552 251.866 405.32 252.04 404.603C252.146 401.66 252.178 399.165 252.316 396.675C252.736 389.068 252.752 389.069 260.406 389.035C270.003 388.993 270.003 388.993 270.017 379.24C270.017 378.908 270.014 378.575 270.016 378.243C270.056 370.467 270.532 369.979 278.184 369.968C291.321 369.949 304.458 369.878 317.595 369.958C322.036 369.985 323.947 368.052 323.837 363.629C323.725 359.145 323.923 354.653 324.455 350.143C365.238 350.076 405.549 350.029 446.256 350.008C447.443 350.038 448.234 350.043 449.205 349.916C449.611 349.593 449.803 349.371 449.949 348.83C449.924 348.349 449.911 348.157 449.914 347.562C449.929 345.81 449.926 344.461 449.949 342.641C449.973 336.78 449.97 331.389 449.979 325.547C449.977 321.785 449.964 318.474 449.972 314.688C449.991 309.73 449.951 305.246 450.001 300.763C450.041 297.141 448.536 295.124 444.709 295.13C429.929 295.15 415.149 295.15 400.369 295.121C396.558 295.114 394.998 297.073 395.045 300.717C395.102 305.2 395.077 309.684 394.66 314.213C390.914 314.473 387.596 314.873 384.277 314.875C317.228 314.908 250.179 314.903 183.129 314.879C175.529 314.877 175.295 314.581 174.961 306.682C174.949 304.514 174.919 302.781 174.915 300.641C174.937 298.886 174.933 297.537 174.559 296.014C172.555 295.591 170.92 295.128 169.286 295.128C136.525 295.121 103.765 295.168 70.5539 295.184C67.3969 295.195 64.6902 295.225 61.5774 295.22C56.8601 295.219 56.2273 292.508 55.9364 288.914C55.6178 284.98 54.543 281.106 53.348 277.183C42.3006 277.152 31.7029 277.144 21.1052 277.135C20.4729 276.629 19.8405 276.123 19.0827 274.88C18.9764 271.173 19.04 268.202 19.0057 265.232C18.9266 258.379 18.1071 257.709 11.5028 258.623C9.7158 258.871 7.88918 258.832 6.08074 258.925C1.12942 258.243 -0.0308324 255.181 0.00061661 250.54C0.172949 225.118 0.0720734 199.694 0.129614 174.271C0.143667 168.071 0.967673 167.34 6.97716 167.227C7.47553 167.217 7.97414 167.223 8.47265 167.221C18.9519 167.162 18.952 167.162 18.9797 156.797C18.999 149.613 19.3843 149.228 26.6315 149.161C28.1269 149.147 29.6263 149.057 31.117 149.134C35.1472 149.343 36.8769 147.405 36.8171 143.453C36.7544 139.301 36.8718 135.146 36.9522 130.525C41.0109 130.06 45.028 130.062 49.9159 130.066C51.8813 130.047 52.976 130.027 54.5326 130.032C64.2821 130.023 73.5698 129.99 83.3348 129.982C89.1418 130.047 94.4715 130.11 99.8013 130.12C103.053 130.126 104.771 131.66 104.842 134.946C104.879 136.611 104.913 138.276 104.926 139.942C104.998 148.894 105.17 149.102 114.316 149.106C155.458 149.124 196.6 149.118 237.742 149.12C305.535 149.124 373.328 149.13 441.121 149.127C449.746 149.127 450.053 148.807 450.048 140.053C450.041 123.729 450.012 107.406 450.008 90.6613C450.011 88.8377 449.998 87.4352 449.991 85.7103C449.993 84.958 449.988 84.5282 449.993 83.7535C449.995 82.9486 449.989 82.4887 449.991 81.6416C449.671 79.5316 449.344 77.8089 448.565 76.0705C445.404 76.0696 442.694 76.0844 439.572 76.0889C437.785 76.09 436.411 76.1014 434.692 76.0999C433.886 76.0879 433.425 76.0889 432.743 76.091C432.523 76.0921 432.082 76.1089 431.913 75.7282C431.499 71.7122 431.143 68.0803 431.031 64.4408C430.831 57.9426 430.186 57.1569 423.864 57.1006C416.708 57.037 409.551 57.0416 402.395 57.1004C395.801 57.1546 395.067 57.9084 395.036 64.734C394.978 77.5485 394.998 90.3634 394.97 103.178C394.949 113.027 394.939 113.013 384.845 113.027C359.549 113.062 334.253 113.111 308.641 113.148C307.903 113.148 307.482 113.155 306.671 113.15C305.504 113.149 304.725 113.16 303.586 113.158C302.504 113.149 301.783 113.154 300.589 113.134C287.394 113.126 274.671 113.142 261.505 113.142C258.399 113.14 255.736 113.155 252.614 113.144C249.083 113.136 246.013 113.153 242.524 113.153C240.43 113.15 238.754 113.165 236.606 113.156C229.404 113.141 222.676 113.15 215.489 113.142C210.707 113.132 206.384 113.14 201.652 113.127C200.153 113.118 199.063 113.128 197.505 113.126C176.431 113.097 155.822 113.107 135.214 113.054C121.153 113.018 121.888 114.11 122.032 100.32C122.079 95.895 120.279 93.9953 115.801 94.0474C102.508 94.2022 89.2131 94.1634 75.5746 94.1304C74.2061 92.7141 73.1817 91.3675 72.2406 89.6261C72.3475 85.1765 72.3711 81.1217 72.1936 76.8593C71.664 76.4559 71.3357 76.2602 70.6253 76.0541C69.4779 76.0629 68.7126 76.0821 67.4932 76.0844C66.0439 76.0529 65.0487 76.0349 64.0534 76.0246C56.2895 75.9442 56 75.6666 55.9997 67.7784C55.9994 56.3316 56.0307 44.8848 56.0436 33.438C56.0615 17.4914 55.6749 20.5946 69.4399 19.9628C79.4984 19.9984 89.087 19.9174 98.6727 20.0461C103.018 20.1045 105.189 18.4364 104.941 13.913C104.742 10.2853 104.751 6.64623 104.703 2.64726C104.825 1.55445 104.912 0.826561 105.469 0.0952911C112.938 0.0612721 119.939 0.030639 126.94 0C127.721 0.018036 128.503 0.036072 130.137 0.057518C133.984 0.084076 136.979 0.127258 139.974 0.127464C230.989 0.133606 322.004 0.135513 413.019 0.138084C413.066 0.559128 413.114 0.980163 413.157 2.18535C413.114 5.79568 413.021 8.62236 413.047 11.448C413.112 18.5275 413.642 19.0775 420.81 19.1006C434.779 19.1455 448.749 19.2201 462.716 19.0875C467.195 19.045 469.228 20.8166 468.924 25.2933C468.834 26.617 468.927 27.953 468.934 29.2833C468.981 37.9034 469.37 38.2797 478.018 38.0546C486.907 38.4625 486.914 38.4625 486.923 47.5487C486.948 72.8605 486.978 98.1724 486.974 123.484C486.974 127.055 487.045 130.431 492.949 130C503.974 130.251 503.974 130.251 504.028 140.302C504.032 141.134 504.094 141.971 504.034 142.799C503.712 147.233 505.685 149.189 510.188 149.11C517.346 148.984 524.509 149.184 531.669 149.162C535.165 149.152 536.972 150.668 536.891 154.255C536.857 155.752 536.916 157.252 536.925 158.75C536.978 167.018 538.386 168.352 546.559 167.759C547.712 167.675 548.849 167.361 550.385 167.171C551.563 167.172 552.35 167.156 553.42 167.178C554.083 167.247 554.463 167.277 554.843 167.307C555.055 167.512 555.288 167.689 555.754 168.414C556.024 197.975 556.083 226.963 556.142 255.95C555.894 256.531 555.646 257.113 554.748 257.918C548.724 258.481 543.351 258.82 537.769 259.496C537.391 262.889 537.222 265.944 537.028 269.424C536.658 272.262 536.314 274.676 535.505 277.072C529.931 277.035 524.817 276.874 519.714 277.039C514.493 277.208 509.283 277.695 504.05 278.456C504.053 279.97 504.074 281.072 504.095 282.359C504.095 282.544 504.118 282.915 504.098 283.382C504.053 285.009 504.027 286.169 504.003 287.329C503.848 294.697 503.492 294.943 495.907 295.169C492.979 295.257 490.066 295.881 487.127 296.712C487.108 349.739 487.109 402.315 487.021 455.264C485.789 460.143 481.968 458.677 478.654 459.164C469.934 459.444 469.933 459.444 469.961 467.889C470.002 480.289 470.045 492.69 470.068 505.557C470.076 515.724 470.102 525.424 470.128 535.124C470.09 575.815 470.051 616.505 470.019 658.102C470.044 661.332 470.062 663.656 470.079 665.979C469.831 669.084 469.583 672.188 469.165 675.656C464.642 676.013 460.289 676.005 455.246 676.377C454.394 681.832 454.232 686.907 454.07 691.983C454.054 705.053 454.037 718.124 454.03 732.023C454.049 733.565 454.058 734.278 454.067 734.992C453.62 748.673 453.623 748.797 440.124 749.028C435.657 749.104 433.773 750.78 433.859 755.263C434.006 762.922 433.914 770.586 433.854 778.248C433.798 785.487 433.293 785.994 426.217 786.017C413.725 786.06 401.232 786.02 388.741 786.09C382.862 786.123 382.036 786.896 382.056 792.785C382.095 804.489 382.325 804.191 370.392 804.19C308.098 804.18 245.804 804.183 183.51 804.167C174.119 804.164 174.119 804.129 174.044 794.656C173.979 786.517 173.581 786.099 165.623 786.082C153.631 786.057 141.638 786.093 129.646 786.022C123.815 785.988 122.969 785.204 123.021 779.281C123.132 766.702 122.361 768.076 111.811 768.008C105.841 767.969 105.11 767.261 105.047 761.41C104.962 753.416 104.873 745.418 105.042 737.427C105.137 732.967 103.391 731 98.87 731.161C87.2638 731.574 88.1103 730.516 88.1072 719.976C88.1026 704.319 88.0985 688.662 88.0683 672.538ZM127.407 443.156C126.96 443.143 126.513 443.129 125.284 443.094C124.502 443.108 123.72 443.122 122.61 443.378C122.403 443.557 122.225 443.761 122.042 444.823C122.054 445.937 122.065 447.05 122.044 449.088C122.001 508.162 121.954 567.236 121.918 626.31C121.911 638.445 121.929 638.445 134.771 638.125C138.733 639.125 137.854 642.411 137.865 645.07C137.983 672.686 138.019 700.303 138.507 728.562C143.172 729.098 147.825 729.846 152.505 730.101C156.232 730.304 158 731.854 157.93 735.588C157.881 738.24 158.083 740.901 157.949 743.547C157.715 748.152 159.655 750.248 164.386 750.127C171.015 749.957 177.653 750.102 184.287 750.13C192.827 750.165 193.037 750.475 193.19 759.232C193.241 762.167 193.832 765.092 195.092 768.046C249.012 768.062 302.931 768.092 356.851 768.051C359.287 768.049 361.723 767.398 364.31 766.346C364.281 763.356 364.09 760.357 364.257 757.377C364.594 751.332 365.806 750.217 371.887 750.158C378.717 750.092 385.548 750.156 392.378 750.114C399.1 750.073 399.77 749.376 399.885 742.63C400.083 731.026 400.077 730.952 411.888 730.127C415.009 729.909 416.386 728.74 416.305 725.535C416.107 717.709 416.08 709.879 415.987 701.274C416.035 673.475 416.124 645.675 416.077 617.876C416.072 614.607 415.326 611.34 414.998 607.346C415.043 606.619 415.088 605.892 415.5 604.407C415.706 601.948 416.082 599.488 416.092 597.028C416.15 582.81 416.21 568.591 416.066 554.375C416.027 550.514 417.103 547.967 422.024 547.303C423.948 547.315 425.932 547.626 427.779 547.255C429.561 546.897 431.201 545.835 432.967 544.143C432.916 494.9 432.876 445.656 432.776 396.413C432.772 394.279 432.222 392.145 431.213 389.625C429.893 389.469 428.574 389.176 427.255 389.176C398.926 389.179 370.596 389.215 341.869 389.945C341.553 395.264 341.237 400.582 340.871 405.932C340.871 405.932 340.835 405.981 340.392 406.025C340.392 406.025 339.952 406.097 339.063 406.039C336.369 406.043 333.675 406.047 330.33 406.01C329.895 406.024 329.46 406.038 328.16 406.006C326.423 406.015 324.686 406.025 322.148 405.961C320.809 405.974 319.47 405.988 317.191 405.95C315.095 405.95 312.999 405.981 310.904 405.943C307.486 405.88 305.754 407.394 306.057 411.786C306.072 412.923 306.087 414.06 306.062 416.038C306.068 418.01 306.074 419.982 305.849 422.535C305.533 423.071 305.217 423.607 304.202 424.109C303.503 424.117 302.803 424.124 301.305 424.087C300.506 424.103 299.707 424.119 298.109 424.099C296.776 424.111 295.444 424.122 293.308 424.089C292.505 424.106 291.701 424.122 289.993 424.104C286.052 424.126 282.111 424.148 277.296 424.114C274.202 424.282 270.356 423.158 270.115 429.114C270.122 431.359 270.13 433.604 270.063 436.734C270.036 438.796 270.009 440.857 269.051 442.989C266.718 443.006 264.385 443.035 262.053 443.039C217.393 443.105 172.734 443.168 127.407 443.156ZM121.185 186.677C119.71 186.464 118.236 186.068 116.761 186.064C98.6168 186.016 80.4727 185.996 62.3291 186.066C60.5509 186.073 58.7753 186.718 56.9826 187.999C56.9982 192.69 57.0138 197.381 56.4488 202.558C52.0398 203.042 47.6374 203.827 43.2198 203.925C38.7946 204.024 36.8485 205.739 36.9464 210.233C37.1134 217.896 37.1904 225.57 36.9601 233.229C36.8081 238.281 39.024 239.997 43.8394 239.941C56.0037 239.801 68.1711 239.907 80.3371 239.96C88.6307 239.996 88.9629 240.372 88.9693 248.839C88.9764 258.101 88.9763 258.121 98.0541 258.126C121.72 258.14 145.386 258.151 169.051 258.121C172.626 258.116 175.934 258.261 175.935 264.002C175.976 267.709 176.018 271.417 176.316 275.434C176.496 275.634 176.693 275.814 177.857 276.013C187.276 276.005 196.695 275.998 207.029 276.024C222.325 276.018 237.621 276.013 253.64 276.024C254.122 276.019 254.604 276.013 255.891 276.034C257.235 276.026 258.58 276.018 260.642 276.027C261.121 276.022 261.6 276.017 262.792 276.031C263.505 276.026 264.219 276.02 265.835 276.05C268.245 276.041 270.655 276.032 273.904 276.049C275.584 276.041 277.264 276.033 279.855 276.06C282.59 276.049 285.325 276.037 288.69 276.04C289.111 276.036 289.531 276.032 290.895 276.06C308.953 276.047 327.01 276.034 345.691 276.032C346.106 276.028 346.522 276.023 347.722 276.04C348.507 276.032 349.292 276.023 350.932 276.044C352.93 276.033 354.927 276.023 357.872 276.045C367.473 276.046 377.073 276.08 386.673 276.036C393.236 276.006 393.976 275.224 394.041 268.481C394.071 265.337 393.983 262.193 394.715 258.729C397.856 258.529 400.996 258.166 404.138 258.156C423.759 258.097 443.382 258.149 463.003 258.09C469.22 258.072 469.871 257.332 470.029 251.218C470.059 250.054 470.053 248.89 470.069 247.726C470.168 240.615 470.757 239.967 477.754 239.939C490.06 239.891 502.365 239.89 514.67 239.917C518.258 239.925 520.914 239.102 520.876 234.726C520.802 226.246 520.828 217.765 520.858 209.284C520.872 205.459 518.908 204.054 515.241 203.982C511.451 203.908 507.668 203.406 503.933 202.152C503.957 200.356 504.215 198.525 503.954 196.772C503.423 193.201 502.612 189.671 500.997 186.08C480.459 186.059 459.921 186.008 439.383 186.061C437.279 186.066 435.177 186.696 433.038 187.965C433.051 192.003 433.064 196.041 432.906 200.805C431.483 205.033 427.832 203.929 424.875 203.936C377.595 204.044 330.314 204.07 282.092 204.065C258.727 204.069 235.361 204.074 211.199 204.051C210.136 204.057 209.073 204.063 207.148 204.037C205.424 204.061 203.7 204.086 201.154 204.079C199.785 204.094 198.415 204.11 196.205 204.083C194.802 204.081 193.4 204.079 191.062 204.044C170.455 204.026 149.849 204.038 129.242 203.95C126.788 203.94 124.336 203.39 121.934 202.152C121.927 197.111 121.921 192.07 121.185 186.677ZM328.506 38.0884C299.029 38.0825 269.552 38.0712 240.074 38.0721C204.583 38.0732 169.092 38.0828 133.601 38.0924C121.694 38.0956 121.762 38.1459 122.084 50.0879C122.209 54.7123 124.096 56.6789 128.751 56.6787C147.396 56.6777 166.04 56.8608 184.685 56.9404C193.63 56.9785 193.86 57.1745 193.93 66.2444C193.996 74.8592 194.205 75.0789 203.096 75.081C244.419 75.0909 285.742 75.1075 327.065 75.0826C341.651 75.0738 341.262 76.3731 341.05 62.0202C341.047 61.8537 341.069 61.6866 341.061 61.5206C340.908 58.1488 342.438 56.7431 345.878 56.8258C352.872 56.9941 359.874 57.0217 366.87 56.896C378.333 56.69 378.332 56.619 378.018 45.116C377.852 39.0244 377.07 38.1469 370.995 38.1184C357.166 38.0536 343.336 38.0921 328.506 38.0884Z" fill="black"/>
</g>
<defs>
<clipPath id="clip0_1419_258">
<rect width="556" height="804" fill="white"/>
</clipPath>
</defs>
</svg>
